<?xml version="1.0" encoding="UTF-8" standalone="no"?>
<!-- Created with Inkscape (http://www.inkscape.org/) -->

<svg
   width="64.0px"
   height="64.0px"
   viewBox="0 0 64.0 64.0"
   version="1.1"
   id="SVGRoot"
   sodipodi:docname="perlin_noise_icon.svg"
   inkscape:version="1.2.2 (b0a8486541, 2022-12-01)"
   xmlns:inkscape="http://www.inkscape.org/namespaces/inkscape"
   xmlns:sodipodi="http://sodipodi.sourceforge.net/DTD/sodipodi-0.dtd"
   xmlns="http://www.w3.org/2000/svg"
   xmlns:svg="http://www.w3.org/2000/svg">
  <sodipodi:namedview
     id="namedview2592"
     pagecolor="#ffffff"
     bordercolor="#000000"
     borderopacity="0.25"
     inkscape:showpageshadow="2"
     inkscape:pageopacity="0.0"
     inkscape:pagecheckerboard="0"
     inkscape:deskcolor="#d1d1d1"
     inkscape:document-units="px"
     showgrid="true"
     inkscape:zoom="6.5113718"
     inkscape:cx="43.923156"
     inkscape:cy="23.727719"
     inkscape:window-width="1920"
     inkscape:window-height="1011"
     inkscape:window-x="0"
     inkscape:window-y="0"
     inkscape:window-maximized="1"
     inkscape:current-layer="layer1">
    <inkscape:grid
       type="xygrid"
       id="grid2598" />
  </sodipodi:namedview>
  <defs
     id="defs2587" />
  <g
     inkscape:label="Layer 1"
     inkscape:groupmode="layer"
     id="layer1">
    <path
       style="fill:#000000;fill-opacity:1;stroke-width:4.04699"
       d="M -24.655115,30.004645 C -23.174199,16.854731 -13.034164,2.1132552 3.0370129,-4.1408592 20.539052,-10.951793 45.548191,-9.2655827 62.585475,-1.8644921 74.706825,3.4010852 78.548283,15.126833 84.447684,24.4172 91.82711,36.038276 110.34514,49.935531 101.1046,60.839084 92.88852,70.533778 69.690144,63.158951 54.46523,66.012643 43.573855,68.054076 34.022498,75.23343 22.817096,74.49728 10.91579,73.71541 -0.28979996,67.853879 -7.9982073,61.252974 -17.959272,52.72307 -25.908078,41.130409 -24.655115,30.004645 Z"
       id="path2661-3-6-7"
       sodipodi:nodetypes="sssssssss" />
    <path
       style="fill:#414141;fill-opacity:1;stroke-width:2.85732"
       d="M -9.5096356,35.033803 C -8.4813071,25.593757 -1.4401939,15.011162 9.7194292,10.521465 21.872625,5.6320392 30.722949,10.595383 42.553425,15.90847 c 8.41691,3.780047 19.016567,-4.117849 23.113041,2.55151 5.124175,8.342526 18.566377,30.881786 12.149855,38.709217 C 72.11119,64.128814 56.00253,58.834581 45.430536,60.883186 37.867702,62.348688 31.23536,67.502595 23.45447,66.974128 15.190353,66.41284 7.409332,62.204971 2.0567108,57.46632 -4.8601265,51.342882 -10.379678,43.020755 -9.5096356,35.033803 Z"
       id="path2661-3-6"
       sodipodi:nodetypes="sssssssss" />
    <path
       style="fill:#808080;fill-opacity:1;stroke-width:1.85469"
       d="m -0.11324239,35.722146 c 0.61474257,-6.653364 4.82396919,-14.112 11.49527139,-17.276347 7.265266,-3.446078 11.906731,-2.517962 18.979073,1.226713 5.031688,2.664185 12.988723,6.885636 15.437624,11.586214 3.063268,5.87983 23.632772,8.139769 19.79693,13.656559 -3.410567,4.905153 -26.545264,7.5817 -32.865276,9.025561 -4.521116,1.032889 -8.485976,4.665374 -13.137448,4.292909 C 14.652585,57.838158 10.001036,54.872443 6.8012013,51.532632 2.6662678,47.21682 -0.63335955,41.351367 -0.11324239,35.722146 Z"
       id="path2661-3"
       sodipodi:nodetypes="sssssssss" />
    <path
       style="fill:#bebebe;fill-opacity:1"
       d="m 7.8758149,35.236691 c 0.3111154,-3.821827 2.4413621,-8.106219 5.8176401,-9.923884 3.676878,-1.979497 8.599884,-0.804006 12.510109,0.661592 3.15116,1.181092 5.685681,3.733683 7.948359,6.224682 3.392026,3.734306 10.184749,8.140175 8.146609,12.755029 -2.031819,4.600542 -9.875101,1.963572 -14.868612,2.562012 -3.178306,0.380899 -6.467392,1.394732 -9.581009,0.651694 C 15.406918,47.585055 12.994549,46.23701 11.375145,44.318555 9.2824974,41.839465 7.612589,38.47023 7.8758149,35.236691 Z"
       id="path2661"
       sodipodi:nodetypes="aaaaaaaaa" />
    <path
       style="fill:#ffffff;fill-opacity:1;stroke-width:0.497668"
       d="m 13.530304,35.23719 c 0.164738,-1.787624 1.292724,-3.79161 3.080495,-4.641806 1.946943,-0.925892 4.72898,-0.696665 6.624223,0.309454 1.348388,0.715813 1.775715,2.309834 2.43197,3.572784 0.820893,1.579792 2.880855,3.469012 1.852928,4.951262 -0.913962,1.317915 -3.494569,0.315368 -5.188202,0.703304 -1.211565,0.277516 -2.274066,1.253491 -3.520565,1.153418 -1.323911,-0.106289 -2.570431,-0.903117 -3.427921,-1.800457 -1.108077,-1.159572 -1.992309,-2.735501 -1.852928,-4.247959 z"
       id="path2661-5"
       sodipodi:nodetypes="sssssssss" />
  </g>
</svg>
