<?xml version="1.0" encoding="UTF-8" standalone="no"?>
<!-- Created with Inkscape (http://www.inkscape.org/) -->

<svg
   width="64.0px"
   height="64.0px"
   viewBox="0 0 64.0 64.0"
   version="1.1"
   id="SVGRoot"
   sodipodi:docname="waterlevel_provider.svg"
   inkscape:version="1.2.2 (b0a8486541, 2022-12-01)"
   xmlns:inkscape="http://www.inkscape.org/namespaces/inkscape"
   xmlns:sodipodi="http://sodipodi.sourceforge.net/DTD/sodipodi-0.dtd"
   xmlns="http://www.w3.org/2000/svg"
   xmlns:svg="http://www.w3.org/2000/svg">
  <sodipodi:namedview
     id="namedview2592"
     pagecolor="#ffffff"
     bordercolor="#000000"
     borderopacity="0.25"
     inkscape:showpageshadow="2"
     inkscape:pageopacity="0.0"
     inkscape:pagecheckerboard="0"
     inkscape:deskcolor="#d1d1d1"
     inkscape:document-units="px"
     showgrid="true"
     inkscape:zoom="6.2487863"
     inkscape:cx="10.322005"
     inkscape:cy="44.088562"
     inkscape:window-width="1920"
     inkscape:window-height="1011"
     inkscape:window-x="0"
     inkscape:window-y="0"
     inkscape:window-maximized="1"
     inkscape:current-layer="layer1">
    <inkscape:grid
       type="xygrid"
       id="grid2598" />
  </sodipodi:namedview>
  <defs
     id="defs2587">
    <inkscape:perspective
       sodipodi:type="inkscape:persp3d"
       inkscape:vp_x="0 : 32 : 1"
       inkscape:vp_y="0 : 1000 : 0"
       inkscape:vp_z="64 : 32 : 1"
       inkscape:persp3d-origin="32 : 21.333333 : 1"
       id="perspective225" />
  </defs>
  <g
     inkscape:label="Layer 1"
     inkscape:groupmode="layer"
     id="layer1">
    <g
       id="g8694"
       transform="rotate(180,32.663723,32.574208)">
      <rect
         style="fill:#000000;fill-opacity:1;stroke:none;stroke-width:4;stroke-linejoin:round;stroke-dasharray:none;stroke-opacity:1"
         id="rect7127"
         width="72.464165"
         height="6.025938"
         x="-72.473991"
         y="-54.658989"
         transform="scale(-1)" />
      <path
         style="fill:none;stroke:#000000;stroke-width:4;stroke-linejoin:round;stroke-dasharray:none;stroke-opacity:1"
         d="m 73.707887,36.894598 c 0,0 -6.007216,6.121812 -9.882099,6.121812 -3.874883,0 -6.007217,-6.121812 -9.8821,-6.121812 -3.874882,0 -5.27779,6.121812 -9.882098,6.121812 -4.604307,0 -6.007216,-6.121812 -9.882099,-6.121812 -3.874883,0 -6.007216,6.121812 -9.882099,6.121812 -3.874883,0 -6.007216,-6.121812 -9.882099,-6.121812 -3.874883,0 -6.007216,6.121812 -9.882099,6.121812 -3.874883,0 -6.007216,-6.121812 -9.882099,-6.121812 -3.874883,0 -9.8821,6.121812 -9.8821,6.121812"
         id="path8079-2"
         sodipodi:nodetypes="caazaaaaac" />
      <path
         style="fill:none;stroke:#000000;stroke-width:4;stroke-linejoin:round;stroke-dasharray:none;stroke-opacity:1"
         d="m 78.396508,25.26622 c 0,0 -6.007216,6.121812 -9.882099,6.121812 -3.874883,0 -6.007216,-6.121812 -9.882099,-6.121812 -3.874883,0 -5.277791,6.121812 -9.882099,6.121812 -4.604307,0 -6.007216,-6.121812 -9.882099,-6.121812 -3.874883,0 -6.007216,6.121812 -9.882099,6.121812 -3.874883,0 -6.007216,-6.121812 -9.882099,-6.121812 -3.874883,0 -6.007216,6.121812 -9.882099,6.121812 -3.874883,0 -6.007216,-6.121812 -9.882099,-6.121812 -3.874883,0 -9.882097,6.121812 -9.882097,6.121812"
         id="path8079-2-0"
         sodipodi:nodetypes="caazaaaaac" />
      <path
         style="fill:none;stroke:#000000;stroke-width:4;stroke-linejoin:round;stroke-dasharray:none;stroke-opacity:1"
         d="m 81.885898,13.637843 c 0,0 -6.007216,6.121812 -9.8821,6.121812 -3.874883,0 -6.007216,-6.121812 -9.882099,-6.121812 -3.874882,0 -5.27779,6.121812 -9.882097,6.121812 -4.604307,0 -6.007216,-6.121812 -9.882099,-6.121812 -3.874883,0 -6.007216,6.121812 -9.882099,6.121812 -3.874883,0 -6.007216,-6.121812 -9.8821,-6.121812 -3.874882,0 -6.007216,6.121812 -9.882098,6.121812 -3.8748831,0 -6.0072161,-6.121812 -9.8820991,-6.121812 -3.874883,0 -9.8821,6.121812 -9.8821,6.121812"
         id="path8079-2-9"
         sodipodi:nodetypes="caazaaaaac" />
    </g>
  </g>
</svg>
